<?xml version="1.0" standalone="no"?>
<!DOCTYPE svg PUBLIC "-//W3C//DTD SVG 20010904//EN"
 "http://www.w3.org/TR/2001/REC-SVG-20010904/DTD/svg10.dtd">
<svg version="1.0" xmlns="http://www.w3.org/2000/svg"
 width="1284.000000pt" height="963.000000pt" viewBox="0 0 1284.000000 963.000000"
 preserveAspectRatio="xMidYMid meet">

<g transform="translate(0.000000,963.000000) scale(0.100000,-0.100000)"
fill="#8f76a8" stroke="none">
<path d="M3353 9592 c-8 -20 -19 -47 -24 -59 -4 -12 -26 -31 -48 -42 -95 -49
-94 -134 2 -182 57 -30 181 -29 243 2 55 26 82 75 63 112 -12 22 -47 57 -58
57 -3 0 -20 13 -38 29 -36 31 -56 75 -48 101 5 15 -1 18 -35 18 -39 1 -43 -2
-57 -36z m88 -98 c0 -12 8 -29 19 -39 24 -22 26 -52 3 -77 -15 -17 -15 -18 9
-18 32 0 54 49 37 82 -9 16 -8 19 3 13 79 -46 60 -105 -44 -131 -56 -15 -157
-4 -189 19 -52 39 -44 90 18 118 30 14 48 30 57 52 8 18 21 50 31 72 l17 39
20 -54 c10 -30 19 -65 19 -76z"/>
<path d="M6353 9578 c12 -96 19 -143 27 -181 7 -32 5 -42 -11 -58 -27 -27 -29
-91 -2 -117 14 -15 14 -46 0 -102 -25 -97 -17 -125 23 -90 23 20 25 20 37 4 7
-10 13 -21 13 -25 0 -4 7 -9 15 -13 9 -3 25 9 44 37 15 23 29 44 29 47 3 26
29 70 56 92 25 20 35 38 39 70 3 24 14 49 25 57 10 9 29 32 42 51 13 19 28 40
34 45 21 19 93 110 121 153 15 23 30 42 34 42 3 0 12 9 19 20 11 17 10 20 -7
20 -17 0 -85 -76 -150 -168 -13 -19 -33 -44 -45 -56 -44 -46 -96 -109 -96
-116 0 -11 -49 -30 -76 -30 -38 0 -82 30 -94 64 -13 36 -50 245 -50 282 0 16
-6 24 -16 24 -14 0 -16 -8 -11 -52z m66 -296 c6 -15 21 -33 32 -40 23 -15 84
-18 117 -7 29 8 28 -6 -2 -34 -27 -25 -69 -32 -106 -17 -39 16 -80 64 -80 95
0 49 19 51 39 3z m63 -136 l37 -7 -27 -50 -26 -51 -21 25 c-16 21 -23 24 -39
15 -18 -10 -18 -8 -12 23 7 31 13 60 15 67 1 1 9 -1 19 -6 9 -5 34 -12 54 -16z"/>
<path d="M6484 9573 c4 -32 8 -67 11 -78 2 -11 4 -32 4 -47 1 -20 6 -28 20
-28 17 0 17 4 5 73 -7 39 -13 87 -13 105 -1 23 -6 32 -17 32 -14 0 -16 -8 -10
-57z"/>
<path d="M12127 9388 c-19 -19 -42 -56 -53 -87 -14 -40 -27 -59 -49 -70 -107
-57 -112 -141 -12 -192 57 -30 181 -29 243 2 55 26 82 75 63 112 -12 22 -47
57 -58 57 -3 0 -20 13 -38 29 -43 38 -56 73 -43 120 5 20 10 42 10 49 0 22
-28 13 -63 -20z m16 -43 c-3 -9 3 -37 13 -63 10 -26 17 -54 16 -63 -2 -8 7
-24 18 -34 24 -22 26 -52 3 -77 -15 -17 -15 -18 9 -18 32 0 54 49 37 82 -9 16
-8 19 3 13 79 -46 60 -105 -44 -131 -56 -15 -157 -4 -189 19 -51 39 -44 90 17
117 41 19 74 60 74 92 0 14 37 78 45 78 2 0 2 -7 -2 -15z"/>
<path d="M5997 9250 c-19 -16 -40 -43 -46 -60 -6 -16 -16 -44 -22 -61 -8 -19
-26 -37 -50 -49 -72 -37 -89 -95 -44 -149 33 -39 79 -53 169 -53 120 1 192 47
184 118 -2 21 -19 41 -63 76 -73 58 -89 91 -75 151 5 23 10 45 10 50 0 16 -31
5 -63 -23z m37 -135 c10 -17 41 -46 69 -66 62 -41 70 -68 32 -103 -38 -35
-120 -51 -189 -36 -97 20 -139 93 -75 128 53 29 87 61 94 89 3 16 14 44 23 63
l17 35 5 -40 c3 -22 14 -54 24 -70z"/>
<path d="M5939 9057 c-19 -12 -38 -34 -43 -48 -13 -37 0 -79 24 -79 21 0 27
15 10 25 -23 15 -10 56 25 76 19 12 35 27 35 35 0 20 -12 18 -51 -9z"/>
<path d="M6800 9233 c0 -5 5 -27 10 -50 14 -60 -2 -93 -75 -151 -44 -35 -61
-55 -63 -76 -8 -71 64 -117 184 -118 90 0 136 14 169 53 45 54 28 112 -44 149
-24 12 -42 30 -50 49 -6 17 -16 45 -22 61 -18 48 -110 117 -109 83z m91 -131
c13 -43 40 -73 98 -104 64 -35 22 -108 -75 -128 -69 -15 -151 1 -189 36 -38
35 -30 62 32 104 59 40 93 92 93 141 0 31 1 32 14 14 8 -11 20 -40 27 -63z"/>
<path d="M6809 9017 c-19 -12 -38 -34 -43 -48 -13 -37 0 -79 24 -79 21 0 27
15 10 25 -23 15 -10 56 25 76 19 12 35 27 35 35 0 20 -12 18 -51 -9z"/>
<path d="M9892 9054 c-9 -17 5 -84 18 -84 4 0 7 -6 7 -14 0 -7 10 -39 23 -70
21 -54 22 -58 5 -76 -12 -13 -15 -27 -10 -49 6 -27 2 -32 -30 -53 -26 -17 -45
-43 -71 -96 -31 -64 -35 -83 -35 -149 0 -88 11 -140 58 -278 18 -55 36 -110
38 -122 3 -12 14 -42 25 -67 10 -25 15 -46 10 -46 -5 0 -13 -15 -18 -32 -10
-35 3 -73 32 -97 12 -10 16 -34 16 -102 0 -48 4 -91 10 -94 5 -3 17 3 27 15
22 25 35 25 51 0 28 -45 51 -17 76 94 10 41 24 74 40 89 20 20 25 35 24 72 0
26 3 50 8 54 5 3 29 47 53 96 25 50 52 102 62 116 10 14 25 45 35 70 9 24 23
51 31 60 22 26 53 139 54 194 1 57 -19 118 -55 171 -22 33 -24 39 -10 58 19
28 18 63 -3 75 -16 9 -16 13 6 68 13 32 35 77 48 99 20 35 21 43 9 53 -10 8
-16 9 -21 1 -11 -19 -79 -12 -95 10 -18 24 -48 25 -94 3 -34 -16 -35 -15 -65
10 -17 14 -39 24 -49 23 -120 -23 -128 -23 -153 0 -21 19 -46 18 -57 -2z m106
-46 c15 0 22 -5 18 -13 -2 -7 -1 -16 4 -21 4 -5 15 -33 25 -61 17 -55 28 -69
45 -58 8 5 7 11 -1 21 -6 8 -8 14 -4 14 4 0 1 7 -6 17 -8 9 -13 18 -11 20 1 2
-5 19 -13 39 -8 20 -12 40 -9 45 7 12 41 11 49 -1 4 -6 11 -8 16 -5 5 4 22 -2
38 -11 27 -16 32 -16 70 -1 43 18 75 23 55 9 -15 -10 -74 -135 -68 -144 12
-19 27 -3 57 63 l32 71 28 -28 c16 -15 27 -22 25 -14 -2 8 5 16 15 18 23 5 22
-1 -17 -93 l-33 -80 -69 0 c-85 0 -232 19 -244 31 -10 10 -70 169 -70 186 0 6
9 7 23 3 12 -4 32 -7 45 -7z m82 -235 c14 -3 79 -7 144 -9 66 -2 124 -8 128
-12 5 -5 -2 -16 -16 -26 -15 -9 -26 -14 -26 -10 0 4 -6 2 -13 -4 -12 -10 -113
-29 -130 -24 -4 1 -20 3 -35 4 -41 3 -154 51 -166 71 -16 25 8 37 53 25 20 -5
47 -12 61 -15z m-35 -88 c86 -23 199 -30 236 -14 29 11 33 10 59 -18 44 -47
72 -148 57 -208 -3 -11 -10 -38 -15 -60 -5 -22 -28 -74 -51 -115 -23 -41 -50
-95 -61 -120 -11 -25 -24 -52 -30 -60 -5 -8 -30 -51 -55 -96 -57 -102 -97
-124 -164 -89 -41 21 -62 62 -124 246 -77 230 -87 328 -43 434 37 88 102 143
141 120 11 -6 34 -15 50 -20z m-60 -795 c23 -24 37 -30 71 -30 24 0 55 5 69
12 34 15 41 5 18 -26 -35 -50 -111 -53 -170 -8 -24 18 -33 32 -33 53 0 37 9
36 45 -1z m112 -124 c9 -8 -22 -96 -34 -96 -7 0 -13 4 -13 9 0 15 -32 22 -46
10 -12 -9 -14 -3 -14 39 l0 51 52 -5 c28 -2 53 -6 55 -8z"/>
<path d="M9932 8517 c-12 -14 -7 -107 9 -172 6 -22 29 -97 52 -167 31 -98 45
-128 58 -128 15 0 11 18 -27 128 -45 128 -67 231 -68 310 0 44 -6 51 -24 29z"/>
<path d="M6367 8938 c-19 -19 -42 -56 -53 -87 -14 -40 -27 -59 -49 -70 -107
-57 -112 -141 -12 -192 57 -30 181 -29 243 2 55 26 82 75 63 112 -12 22 -47
57 -58 57 -3 0 -20 13 -38 29 -43 38 -56 73 -43 120 5 20 10 42 10 49 0 22
-28 13 -63 -20z m16 -43 c-3 -9 3 -37 13 -63 10 -26 17 -54 16 -63 -2 -8 7
-24 18 -34 24 -22 26 -52 3 -77 -15 -17 -15 -18 9 -18 32 0 54 49 37 82 -9 16
-8 19 3 13 79 -46 60 -105 -44 -131 -56 -15 -157 -4 -189 19 -51 39 -44 90 17
117 41 19 74 60 74 92 0 14 37 78 45 78 2 0 2 -7 -2 -15z"/>
<path d="M1642 8839 c-20 -18 -40 -28 -49 -25 -53 21 -63 19 -101 -23 -36 -39
-40 -41 -69 -31 -36 13 -68 0 -116 -46 -24 -22 -35 -25 -65 -20 -37 5 -62 -6
-62 -29 0 -12 96 -111 150 -153 21 -17 22 -22 11 -36 -11 -13 -11 -20 3 -41
20 -31 20 -44 -1 -86 -12 -24 -16 -55 -14 -113 4 -130 52 -209 245 -400 103
-101 131 -135 132 -157 2 -40 29 -76 68 -93 26 -11 40 -28 69 -91 32 -66 39
-75 52 -65 8 7 15 18 15 26 0 20 17 26 39 14 35 -18 50 -3 45 43 -3 23 -9 59
-15 79 -5 21 -7 60 -3 86 4 36 2 57 -10 80 -14 28 -16 66 -14 270 2 252 -2
303 -33 367 -23 49 -90 119 -130 137 -24 11 -29 19 -29 48 0 40 -14 60 -42 60
-15 0 -18 9 -20 53 -1 28 -3 70 -4 92 -2 22 -3 50 -3 63 -1 29 -9 28 -49 -9z
m-97 -121 c0 -67 3 -83 15 -83 12 0 14 14 12 75 -3 75 -3 75 22 75 14 0 26 -3
26 -7 0 -5 4 -8 10 -8 5 0 7 7 4 15 -4 9 0 15 9 15 19 0 23 -19 26 -110 l2
-75 -53 -24 c-136 -61 -235 -91 -247 -75 -3 5 -36 36 -73 68 -38 32 -68 62
-68 67 0 5 15 9 34 9 19 0 36 5 38 11 2 6 32 -18 66 -52 50 -50 65 -60 75 -50
9 10 -1 24 -51 70 l-64 58 24 14 c12 9 43 15 68 15 38 -1 49 4 80 36 19 20 37
36 40 37 3 1 5 -36 5 -81z m188 -114 c14 -15 -34 -70 -103 -119 -45 -31 -146
-57 -207 -53 -40 3 -48 6 -48 23 0 15 10 22 45 31 25 5 58 16 73 22 16 7 32
12 37 12 15 0 133 56 155 74 21 16 38 20 48 10z m69 -116 c56 -39 93 -95 111
-165 14 -55 16 -99 12 -228 -2 -88 -5 -197 -6 -242 -1 -95 -23 -141 -74 -155
-64 -17 -95 4 -289 198 -84 85 -105 110 -148 181 -64 105 -71 238 -16 303 7 9
47 21 91 29 107 17 159 37 204 76 42 37 66 38 115 3z m148 -765 c0 -28 -23
-83 -35 -83 -7 0 -15 -5 -17 -10 -2 -6 -27 -13 -55 -17 -40 -4 -58 -2 -78 11
-29 19 -36 63 -7 51 56 -25 115 -12 156 34 19 21 36 27 36 14z m7 -160 c11
-51 5 -64 -28 -56 -11 3 -25 0 -33 -6 -15 -13 -18 -10 -44 38 -14 28 -14 29
36 52 53 25 56 24 69 -28z"/>
<path d="M1457 8208 c-12 -34 80 -155 217 -290 72 -70 106 -93 106 -70 0 4
-41 48 -91 97 -50 49 -103 105 -117 124 -15 20 -32 41 -37 47 -6 6 -22 32 -35
58 -26 48 -35 55 -43 34z"/>
<path d="M5007 8268 c-19 -19 -42 -56 -53 -87 -14 -40 -27 -59 -49 -70 -107
-57 -112 -141 -12 -192 57 -30 181 -29 243 2 55 26 82 75 63 112 -12 22 -47
57 -58 57 -3 0 -20 13 -38 29 -43 38 -56 73 -43 120 5 20 10 42 10 49 0 22
-28 13 -63 -20z m16 -43 c-3 -9 3 -37 13 -63 10 -26 17 -54 16 -63 -2 -8 7
-24 18 -34 24 -22 26 -52 3 -77 -15 -17 -15 -18 9 -18 32 0 54 49 37 82 -9 16
-8 19 3 13 79 -46 60 -105 -44 -131 -56 -15 -157 -4 -189 19 -51 39 -44 90 17
117 41 19 74 60 74 92 0 14 37 78 45 78 2 0 2 -7 -2 -15z"/>
<path d="M10360 7925 c0 -3 5 -14 10 -25 6 -11 14 -29 20 -39 21 -44 2 -93
-64 -164 -91 -97 -1 -185 159 -156 119 21 175 67 175 143 0 30 -5 40 -32 56
-18 11 -41 20 -51 20 -21 0 -77 52 -77 72 0 16 -54 70 -87 87 -22 11 -53 15
-53 6z m117 -117 c23 -44 34 -52 129 -88 32 -12 35 -53 7 -88 -66 -85 -293
-92 -293 -9 0 12 18 42 40 67 49 55 70 97 70 140 0 43 17 35 47 -22z"/>
<path d="M10410 7705 c-24 -25 -33 -43 -32 -65 1 -35 17 -60 38 -60 16 0 19
16 4 25 -20 12 -11 63 15 83 24 19 34 52 17 52 -4 0 -23 -16 -42 -35z"/>
<path d="M2130 7879 l-25 -10 42 -39 c53 -49 61 -85 34 -165 -19 -57 -19 -62
-3 -95 34 -69 118 -61 226 20 67 51 101 113 92 165 -10 51 -43 69 -111 61 -51
-6 -105 7 -105 24 0 8 -65 37 -100 43 -14 3 -36 1 -50 -4z m170 -85 c17 -10
44 -12 85 -8 57 6 61 5 74 -19 31 -57 -34 -150 -135 -193 -107 -45 -145 -17
-114 87 19 61 19 134 1 152 -6 6 -11 17 -11 25 0 10 9 8 38 -9 20 -12 48 -28
62 -35z"/>
<path d="M2262 7727 c-7 -8 -15 -34 -18 -58 -5 -38 -3 -47 20 -68 17 -16 31
-21 43 -17 16 7 15 10 -9 28 -30 21 -34 43 -16 83 14 31 -1 55 -20 32z"/>
<path d="M9576 7790 c-25 -30 -53 -107 -42 -117 9 -10 -36 -82 -55 -88 -9 -3
-24 -21 -33 -40 -15 -30 -15 -38 -3 -68 53 -126 367 -64 367 72 0 39 -7 46
-94 91 -66 33 -86 63 -87 128 -2 61 -15 67 -53 22z m50 -128 c9 -9 46 -33 83
-52 75 -40 88 -66 51 -105 -39 -41 -103 -65 -176 -65 -59 0 -68 3 -95 29 -16
16 -29 36 -29 43 0 8 23 35 50 61 36 34 50 55 50 75 0 15 5 45 11 67 l12 40
13 -38 c7 -21 21 -45 30 -55z"/>
<path d="M9567 7598 c-52 -38 -68 -108 -31 -139 22 -18 34 -1 18 29 -19 37
-18 39 17 71 17 16 29 36 27 44 -2 13 -7 13 -31 -5z"/>
<path d="M10015 7576 c-6 -7 -18 -24 -28 -38 -9 -13 -22 -51 -28 -84 -9 -50
-18 -65 -55 -101 -35 -34 -44 -50 -44 -75 1 -63 55 -101 140 -101 152 2 269
87 231 169 -7 16 -33 35 -74 53 -77 34 -109 71 -107 121 3 58 1 70 -13 70 -6
0 -17 -6 -22 -14z m29 -132 c9 -9 20 -30 23 -46 3 -17 15 -34 28 -40 24 -11
39 -54 24 -64 -14 -9 -10 -24 6 -24 20 0 34 37 28 73 -4 26 -3 27 21 16 57
-26 34 -87 -47 -127 -33 -15 -66 -23 -112 -23 -75 -1 -111 16 -121 58 -6 23
-1 33 39 68 39 34 46 47 52 90 4 28 12 61 18 75 l10 25 7 -32 c4 -17 15 -39
24 -49z"/>
<path d="M1471 7418 c-12 -32 -8 -105 9 -156 12 -38 11 -47 -3 -78 -61 -126
61 -203 182 -116 108 78 147 137 130 195 -15 53 -31 62 -108 59 -93 -4 -142
19 -161 77 -15 45 -36 53 -49 19z m49 -84 c22 -26 82 -45 135 -43 86 3 92 1
103 -29 12 -34 -6 -74 -57 -127 -36 -38 -106 -75 -143 -75 -34 0 -68 27 -68
55 0 13 8 40 17 60 16 34 16 39 0 99 -9 36 -17 67 -17 70 0 11 18 6 30 -10z"/>
<path d="M1547 7233 c-18 -30 -23 -82 -12 -110 13 -31 46 -50 65 -38 15 9 12
25 -4 25 -16 0 -39 26 -42 47 -2 9 4 26 13 39 8 13 12 28 8 34 -7 12 -22 13
-28 3z"/>
<path d="M1951 7381 c-12 -40 -3 -110 20 -152 7 -14 4 -30 -11 -63 -26 -59
-26 -97 3 -124 33 -31 69 -36 124 -18 54 18 138 82 167 128 24 38 26 112 3
135 -12 12 -39 17 -107 18 -103 3 -121 13 -147 78 -19 48 -37 47 -52 -2z m127
-118 c17 -13 39 -23 49 -23 27 0 43 -20 43 -53 0 -25 2 -28 15 -17 20 16 19
54 -1 75 -9 9 -14 19 -10 22 13 13 46 9 62 -8 23 -26 9 -79 -34 -126 -32 -35
-92 -76 -114 -78 -3 0 -10 -3 -14 -7 -22 -22 -90 4 -98 37 -3 13 1 39 9 59 18
43 20 107 3 124 -7 7 -9 12 -5 12 4 0 3 9 -3 19 -5 11 -7 26 -4 34 4 11 13 7
38 -17 19 -17 47 -41 64 -53z"/>
<path d="M7457 7350 c-19 -16 -40 -43 -46 -60 -6 -16 -16 -44 -22 -61 -8 -19
-26 -37 -50 -49 -72 -37 -89 -95 -44 -149 33 -39 79 -53 169 -53 120 1 192 47
184 118 -2 21 -19 41 -63 76 -73 58 -89 91 -75 151 5 23 10 45 10 50 0 16 -31
5 -63 -23z m37 -135 c10 -17 41 -46 69 -66 62 -41 70 -68 32 -103 -38 -35
-120 -51 -189 -36 -97 20 -139 93 -75 128 53 29 87 61 94 89 3 16 14 44 23 63
l17 35 5 -40 c3 -22 14 -54 24 -70z"/>
<path d="M7399 7157 c-19 -12 -38 -34 -43 -48 -13 -37 0 -79 24 -79 21 0 27
15 10 25 -23 15 -10 56 25 76 19 12 35 27 35 35 0 20 -12 18 -51 -9z"/>
<path d="M11787 6090 c-19 -16 -40 -43 -46 -60 -6 -16 -16 -44 -22 -61 -8 -19
-26 -37 -50 -49 -72 -37 -89 -95 -44 -149 33 -39 79 -53 169 -53 120 1 192 47
184 118 -2 21 -19 41 -63 76 -73 58 -89 91 -75 151 5 23 10 45 10 50 0 16 -31
5 -63 -23z m37 -135 c10 -17 41 -46 69 -66 62 -41 70 -68 32 -103 -38 -35
-120 -51 -189 -36 -97 20 -139 93 -75 128 53 29 87 61 94 89 3 16 14 44 23 63
l17 35 5 -40 c3 -22 14 -54 24 -70z"/>
<path d="M11729 5897 c-19 -12 -38 -34 -43 -48 -13 -37 0 -79 24 -79 21 0 27
15 10 25 -23 15 -10 56 25 76 19 12 35 27 35 35 0 20 -12 18 -51 -9z"/>
<path d="M6350 6005 c-6 -8 -9 -18 -6 -24 3 -5 8 -26 11 -48 2 -21 9 -63 15
-92 14 -73 13 -78 -10 -84 -15 -4 -20 -14 -20 -39 0 -30 -5 -36 -41 -52 -42
-19 -92 -78 -129 -152 -40 -80 -35 -339 10 -547 7 -32 5 -42 -11 -58 -27 -27
-29 -91 -2 -117 14 -15 14 -46 0 -102 -25 -97 -17 -125 23 -90 23 20 25 20 37
4 7 -10 13 -21 13 -25 0 -4 7 -9 15 -13 10 -3 26 11 47 42 18 26 31 47 29 47
-13 0 27 66 53 87 25 20 35 38 39 70 3 24 14 49 25 57 10 9 29 32 42 51 13 19
28 40 34 45 17 16 89 106 116 145 13 19 35 46 48 60 13 14 39 55 56 92 42 84
47 169 17 249 -21 53 -21 53 -1 74 23 24 25 47 9 74 -12 19 10 60 84 153 16
20 27 40 24 45 -3 5 -25 8 -49 7 -36 -2 -47 3 -68 27 -29 32 -40 35 -94 24
-35 -7 -40 -5 -62 23 -21 26 -30 30 -76 30 -29 0 -61 1 -71 1 -9 1 -27 12 -39
26 -24 28 -50 32 -68 10z m142 -65 c37 0 57 -4 53 -10 -3 -5 2 -10 11 -10 10
0 28 -10 41 -22 21 -20 28 -21 74 -12 27 6 52 7 55 2 3 -4 -2 -8 -10 -8 -9 0
-16 -4 -16 -8 0 -5 -8 -17 -18 -28 -35 -38 -63 -92 -51 -99 13 -9 16 -5 66 66
36 52 39 54 56 39 9 -9 17 -22 17 -28 0 -7 5 -12 11 -12 5 0 7 5 4 10 -3 6 4
10 16 10 21 0 21 0 3 -27 -63 -98 -88 -133 -93 -133 -3 0 -35 7 -71 16 -36 9
-76 18 -90 20 -13 3 -29 9 -35 13 -5 5 -23 12 -40 15 -51 12 -60 26 -78 127
-22 124 -22 125 9 100 20 -16 41 -21 86 -21z m-24 -238 c12 -8 22 -11 22 -8 0
4 6 4 13 -1 6 -4 14 -8 17 -9 3 0 12 -3 20 -6 34 -14 151 -38 180 -38 33 0 40
-19 13 -36 -25 -15 -144 -17 -194 -4 -48 13 -157 83 -166 107 -14 36 33 33 95
-5z m-78 -57 c33 -39 209 -98 276 -93 33 3 40 -1 57 -30 11 -19 22 -60 24 -96
8 -90 -22 -163 -112 -274 -39 -48 -81 -102 -94 -120 -13 -19 -33 -44 -45 -56
-44 -46 -96 -109 -96 -116 0 -4 -11 -12 -25 -18 -65 -30 -127 -1 -149 68 -30
92 -51 264 -51 405 0 135 1 142 30 199 31 61 101 132 138 139 12 2 25 5 28 6
4 0 12 -6 19 -14z m-171 -793 c6 -15 21 -33 32 -40 23 -15 84 -18 117 -7 29 8
28 -6 -2 -34 -27 -25 -69 -32 -106 -17 -39 16 -80 64 -80 95 0 49 19 51 39 3z
m63 -136 l37 -7 -27 -50 -26 -51 -21 25 c-16 21 -23 24 -39 15 -18 -10 -18 -8
-12 23 7 31 13 60 15 67 1 1 9 -1 19 -6 9 -5 34 -12 54 -16z"/>
<path d="M6466 5922 c-4 -7 2 -45 20 -129 2 -13 11 -23 19 -23 8 0 15 2 15 5
0 4 -16 85 -26 133 -4 22 -18 29 -28 14z"/>
<path d="M6279 5478 c0 -2 -3 -47 -6 -100 -4 -80 6 -231 22 -313 2 -11 4 -32
4 -47 1 -20 6 -28 20 -28 17 0 17 4 5 73 -19 99 -28 322 -16 375 9 38 8 42 -9
42 -10 0 -19 -1 -20 -2z"/>
<path d="M3967 5980 c-19 -16 -40 -43 -46 -60 -6 -16 -16 -44 -22 -61 -8 -19
-26 -37 -50 -49 -72 -37 -89 -95 -44 -149 33 -39 79 -53 169 -53 120 1 192 47
184 118 -2 21 -19 41 -63 76 -73 58 -89 91 -75 151 5 23 10 45 10 50 0 16 -31
5 -63 -23z m37 -135 c10 -17 41 -46 69 -66 62 -41 70 -68 32 -103 -38 -35
-120 -51 -189 -36 -97 20 -139 93 -75 128 53 29 87 61 94 89 3 16 14 44 23 63
l17 35 5 -40 c3 -22 14 -54 24 -70z"/>
<path d="M3909 5787 c-19 -12 -38 -34 -43 -48 -13 -37 0 -79 24 -79 21 0 27
15 10 25 -23 15 -10 56 25 76 19 12 35 27 35 35 0 20 -12 18 -51 -9z"/>
<path d="M9297 5408 c-19 -19 -42 -56 -53 -87 -14 -40 -27 -59 -49 -70 -107
-57 -112 -141 -12 -192 57 -30 181 -29 243 2 55 26 82 75 63 112 -12 22 -47
57 -58 57 -3 0 -20 13 -38 29 -43 38 -56 73 -43 120 5 20 10 42 10 49 0 22
-28 13 -63 -20z m16 -43 c-3 -9 3 -37 13 -63 10 -26 17 -54 16 -63 -2 -8 7
-24 18 -34 24 -22 26 -52 3 -77 -15 -17 -15 -18 9 -18 32 0 54 49 37 82 -9 16
-8 19 3 13 79 -46 60 -105 -44 -131 -56 -15 -157 -4 -189 19 -51 39 -44 90 17
117 41 19 74 60 74 92 0 14 37 78 45 78 2 0 2 -7 -2 -15z"/>
<path d="M619 5280 c-11 -6 -22 -44 -34 -119 -16 -97 -21 -110 -39 -113 -12
-2 -28 -17 -36 -34 -12 -26 -23 -33 -55 -37 -22 -3 -47 -8 -56 -9 -30 -7 -128
-87 -157 -130 -45 -66 -94 -214 -126 -379 -23 -120 -29 -134 -60 -154 -30 -20
-31 -23 -31 -89 0 -47 -4 -71 -12 -73 -15 -5 -17 -53 -3 -53 6 0 15 11 20 25
9 25 30 35 30 15 0 -6 16 -18 35 -27 19 -9 35 -21 35 -26 0 -14 -72 -77 -82
-71 -4 3 -8 14 -8 25 0 20 -25 37 -37 25 -4 -3 -1 -16 5 -29 6 -12 12 -31 14
-42 6 -37 35 -27 97 32 34 32 76 63 94 69 19 6 43 27 60 52 16 23 33 42 39 42
6 0 25 10 42 23 17 13 63 41 101 62 39 21 90 52 115 69 25 18 56 37 70 44 24
12 121 101 147 134 20 27 44 124 42 172 -2 25 -1 47 2 49 2 2 17 11 32 21 23
14 28 23 25 49 -3 30 2 35 84 90 59 40 85 63 81 73 -3 8 -15 14 -27 14 -21 1
-60 24 -62 38 -2 17 -24 62 -31 63 -5 1 -23 2 -42 4 -35 2 -58 23 -67 62 -4
16 -22 28 -60 43 -30 11 -59 20 -64 20 -6 0 -18 17 -27 37 -20 40 -30 47 -54
33z m81 -100 c10 0 11 -3 4 -8 -14 -9 -23 -43 -30 -109 -5 -42 -3 -53 8 -53
10 0 18 24 27 80 8 44 15 80 17 80 17 0 54 -22 49 -30 -3 -5 0 -10 8 -10 8 0
20 -13 27 -30 13 -30 19 -34 83 -45 20 -3 37 -10 37 -16 0 -6 -4 -7 -10 -4 -8
5 -40 -11 -75 -37 -5 -5 -21 -16 -34 -26 -14 -11 -21 -24 -17 -30 7 -12 32 2
103 55 l30 22 13 -24 c7 -14 21 -27 32 -31 10 -3 18 -9 18 -13 0 -7 -93 -77
-137 -104 -8 -5 -29 2 -56 21 -99 68 -115 79 -160 116 -39 32 -47 44 -43 65
16 88 27 149 32 171 l6 25 26 -33 c15 -18 34 -32 42 -32z m-72 -226 c33 -34
181 -135 215 -147 30 -11 13 -32 -26 -33 -46 -1 -163 54 -206 98 -45 46 -83
112 -75 132 6 16 8 16 33 0 14 -9 41 -32 59 -50z m-103 -23 c8 -26 124 -130
177 -158 22 -13 51 -23 64 -23 17 0 24 -8 30 -32 18 -85 -14 -174 -90 -250
-39 -39 -128 -100 -171 -117 -5 -2 -36 -21 -67 -43 -31 -21 -59 -38 -61 -38
-3 0 -38 -20 -79 -45 -94 -57 -136 -60 -179 -14 -34 37 -38 84 -14 194 25 116
36 169 39 190 5 34 56 168 78 203 56 92 142 150 220 151 38 1 48 -3 53 -18z
m-432 -676 c3 -16 8 -38 12 -48 9 -22 76 -57 110 -57 14 0 25 -5 25 -10 0 -17
-52 -32 -89 -26 -72 11 -128 117 -85 161 20 19 21 18 27 -20z"/>
<path d="M362 4797 c-38 -51 -102 -250 -127 -395 -3 -19 -7 -38 -8 -44 -1 -6
3 -12 10 -15 14 -5 42 92 67 232 6 32 43 127 67 171 23 41 26 53 15 57 -8 3
-19 0 -24 -6z"/>
<path d="M5797 4820 c-19 -16 -40 -43 -46 -60 -6 -16 -16 -44 -22 -61 -8 -19
-26 -37 -50 -49 -72 -37 -89 -95 -44 -149 33 -39 79 -53 169 -53 120 1 192 47
184 118 -2 21 -19 41 -63 76 -73 58 -89 91 -75 151 5 23 10 45 10 50 0 16 -31
5 -63 -23z m37 -135 c10 -17 41 -46 69 -66 62 -41 70 -68 32 -103 -38 -35
-120 -51 -189 -36 -97 20 -139 93 -75 128 53 29 87 61 94 89 3 16 14 44 23 63
l17 35 5 -40 c3 -22 14 -54 24 -70z"/>
<path d="M5739 4627 c-19 -12 -38 -34 -43 -48 -13 -37 0 -79 24 -79 21 0 27
15 10 25 -23 15 -10 56 25 76 19 12 35 27 35 35 0 20 -12 18 -51 -9z"/>
<path d="M6600 4803 c0 -5 5 -27 10 -50 14 -60 -2 -93 -75 -151 -44 -35 -61
-55 -63 -76 -8 -71 64 -117 184 -118 90 0 136 14 169 53 45 54 28 112 -44 149
-24 12 -42 30 -50 49 -6 17 -16 45 -22 61 -18 48 -110 117 -109 83z m91 -131
c13 -43 40 -73 98 -104 64 -35 22 -108 -75 -128 -69 -15 -151 1 -189 36 -38
35 -30 62 32 104 59 40 93 92 93 141 0 31 1 32 14 14 8 -11 20 -40 27 -63z"/>
<path d="M6609 4587 c-19 -12 -38 -34 -43 -48 -13 -37 0 -79 24 -79 21 0 27
15 10 25 -23 15 -10 56 25 76 19 12 35 27 35 35 0 20 -12 18 -51 -9z"/>
<path d="M6167 4508 c-19 -19 -42 -56 -53 -87 -14 -40 -27 -59 -49 -70 -107
-57 -112 -141 -12 -192 57 -30 181 -29 243 2 55 26 82 75 63 112 -12 22 -47
57 -58 57 -3 0 -20 13 -38 29 -43 38 -56 73 -43 120 5 20 10 42 10 49 0 22
-28 13 -63 -20z m16 -43 c-3 -9 3 -37 13 -63 10 -26 17 -54 16 -63 -2 -8 7
-24 18 -34 24 -22 26 -52 3 -77 -15 -17 -15 -18 9 -18 32 0 54 49 37 82 -9 16
-8 19 3 13 79 -46 60 -105 -44 -131 -56 -15 -157 -4 -189 19 -51 39 -44 90 17
117 41 19 74 60 74 92 0 14 37 78 45 78 2 0 2 -7 -2 -15z"/>
<path d="M2477 4418 c-19 -19 -42 -56 -53 -87 -14 -40 -27 -59 -49 -70 -107
-57 -112 -141 -12 -192 57 -30 181 -29 243 2 55 26 82 75 63 112 -12 22 -47
57 -58 57 -3 0 -20 13 -38 29 -43 38 -56 73 -43 120 5 20 10 42 10 49 0 22
-28 13 -63 -20z m16 -43 c-3 -9 3 -37 13 -63 10 -26 17 -54 16 -63 -2 -8 7
-24 18 -34 24 -22 26 -52 3 -77 -15 -17 -15 -18 9 -18 32 0 54 49 37 82 -9 16
-8 19 3 13 79 -46 60 -105 -44 -131 -56 -15 -157 -4 -189 19 -51 39 -44 90 17
117 41 19 74 60 74 92 0 14 37 78 45 78 2 0 2 -7 -2 -15z"/>
<path d="M426 4021 c-7 -53 -51 -111 -84 -111 -27 0 -92 -25 -113 -43 -12 -11
-19 -30 -19 -53 0 -59 73 -120 180 -150 64 -19 100 -17 138 6 59 36 67 92 19
141 -37 37 -45 60 -40 110 3 34 -1 58 -19 94 -32 69 -53 70 -62 6z m49 -101
c3 -70 8 -81 57 -142 18 -23 20 -31 10 -53 -33 -72 -196 -49 -275 38 -15 17
-27 41 -27 53 0 26 34 54 65 54 12 0 44 12 73 26 38 19 56 35 69 64 10 21 19
37 21 35 2 -2 5 -35 7 -75z"/>
<path d="M358 3860 c-38 -11 -58 -34 -65 -73 -4 -29 -2 -35 15 -39 18 -5 20
-2 16 21 -7 31 16 61 46 61 28 0 50 11 50 24 0 14 -25 16 -62 6z"/>
<path d="M10862 3919 c-20 -18 -40 -28 -49 -25 -53 21 -63 19 -101 -23 -36
-39 -40 -41 -69 -31 -36 13 -68 0 -116 -46 -24 -22 -35 -25 -65 -20 -37 5 -62
-6 -62 -29 0 -12 96 -111 150 -153 21 -17 22 -22 11 -36 -11 -13 -11 -20 3
-41 20 -31 20 -44 -1 -86 -12 -24 -16 -55 -14 -113 4 -130 52 -209 245 -400
103 -101 131 -135 132 -157 2 -40 29 -76 68 -93 26 -11 40 -28 69 -91 32 -66
39 -75 52 -65 8 7 15 18 15 26 0 20 17 26 39 14 35 -18 50 -3 45 43 -3 23 -9
59 -15 79 -5 21 -7 60 -3 86 4 36 2 57 -10 80 -14 27 -16 66 -14 269 2 253 -3
305 -33 368 -23 49 -90 119 -130 137 -24 11 -29 19 -29 48 0 40 -14 60 -42 60
-15 0 -18 9 -20 53 -1 28 -3 70 -4 92 -2 22 -3 50 -3 63 -1 29 -9 28 -49 -9z
m-97 -121 c0 -67 3 -83 15 -83 12 0 14 14 12 75 -3 75 -3 75 22 75 14 0 26 -3
26 -7 0 -5 4 -8 10 -8 5 0 7 7 4 15 -4 9 0 15 9 15 19 0 23 -19 26 -110 l2
-75 -53 -24 c-136 -61 -235 -91 -247 -75 -3 5 -36 36 -73 68 -38 32 -68 62
-68 67 0 5 15 9 34 9 19 0 36 5 38 11 2 6 32 -18 66 -52 50 -50 65 -60 75 -50
9 10 -1 24 -51 70 l-64 58 24 14 c12 9 43 15 68 15 38 -1 49 4 80 36 19 20 37
36 40 37 3 1 5 -36 5 -81z m188 -114 c14 -15 -34 -70 -103 -119 -45 -31 -146
-57 -207 -53 -40 3 -48 6 -48 23 0 15 10 22 45 31 25 5 58 16 73 22 16 7 32
12 37 12 15 0 133 56 155 74 21 16 38 20 48 10z m69 -116 c55 -39 93 -95 111
-165 14 -56 16 -98 12 -238 -3 -93 -5 -202 -6 -242 -1 -84 -25 -131 -74 -145
-64 -17 -95 4 -289 198 -84 85 -105 110 -148 181 -64 105 -71 238 -16 303 7 9
47 21 91 29 107 17 159 37 204 76 42 37 66 38 115 3z m148 -765 c0 -28 -23
-83 -35 -83 -7 0 -15 -5 -17 -10 -2 -6 -27 -13 -55 -17 -40 -4 -58 -2 -78 11
-29 19 -36 63 -7 51 56 -25 115 -12 156 34 19 21 36 27 36 14z m7 -160 c11
-51 5 -64 -28 -56 -11 3 -25 0 -33 -6 -15 -13 -18 -10 -44 38 -14 28 -14 29
36 52 53 25 56 24 69 -28z"/>
<path d="M10677 3288 c-12 -34 80 -155 217 -290 72 -70 106 -93 106 -70 0 4
-41 48 -91 97 -50 49 -103 105 -117 124 -15 20 -32 41 -37 47 -6 6 -22 32 -35
58 -26 48 -35 55 -43 34z"/>
<path d="M4387 3758 c-19 -19 -42 -56 -53 -87 -14 -40 -27 -59 -49 -70 -107
-57 -112 -141 -12 -192 57 -30 181 -29 243 2 55 26 82 75 63 112 -12 22 -47
57 -58 57 -3 0 -20 13 -38 29 -43 38 -56 73 -43 120 5 20 10 42 10 49 0 22
-28 13 -63 -20z m16 -43 c-3 -9 3 -37 13 -63 10 -26 17 -54 16 -63 -2 -8 7
-24 18 -34 24 -22 26 -52 3 -77 -15 -17 -15 -18 9 -18 32 0 54 49 37 82 -9 16
-8 19 3 13 79 -46 60 -105 -44 -131 -56 -15 -157 -4 -189 19 -51 39 -44 90 17
117 41 19 74 60 74 92 0 14 37 78 45 78 2 0 2 -7 -2 -15z"/>
<path d="M0 3657 c0 -51 2 -57 15 -44 14 15 12 57 -5 86 -7 11 -9 -2 -10 -42z"/>
<path d="M7797 3620 c-19 -16 -40 -43 -46 -60 -6 -16 -16 -44 -22 -61 -8 -19
-26 -37 -50 -49 -72 -37 -89 -95 -44 -149 33 -39 79 -53 169 -53 120 1 192 47
184 118 -2 21 -19 41 -63 76 -73 58 -89 91 -75 151 5 23 10 45 10 50 0 16 -31
5 -63 -23z m37 -135 c10 -17 41 -46 69 -66 62 -41 70 -68 32 -103 -38 -35
-120 -51 -189 -36 -97 20 -139 93 -75 128 53 29 87 61 94 89 3 16 14 44 23 63
l17 35 5 -40 c3 -22 14 -54 24 -70z"/>
<path d="M7739 3427 c-19 -12 -38 -34 -43 -48 -13 -37 0 -79 24 -79 21 0 27
15 10 25 -23 15 -10 56 25 76 19 12 35 27 35 35 0 20 -12 18 -51 -9z"/>
<path d="M11350 2959 l-25 -10 42 -39 c53 -49 61 -85 34 -165 -19 -57 -19 -62
-3 -95 34 -69 118 -61 226 20 67 51 101 113 92 165 -10 51 -43 69 -111 61 -51
-6 -105 7 -105 24 0 8 -65 37 -100 43 -14 3 -36 1 -50 -4z m170 -85 c17 -10
44 -12 85 -8 57 6 61 5 74 -19 31 -57 -34 -150 -135 -193 -107 -45 -145 -17
-114 87 19 61 19 134 1 152 -6 6 -11 17 -11 25 0 10 9 8 38 -9 20 -12 48 -28
62 -35z"/>
<path d="M11482 2807 c-7 -8 -15 -34 -18 -58 -5 -38 -3 -47 20 -68 17 -16 31
-21 43 -17 16 7 15 10 -9 28 -30 21 -34 43 -16 83 14 31 -1 55 -20 32z"/>
<path d="M10691 2498 c-12 -32 -8 -105 9 -156 12 -38 11 -47 -3 -78 -61 -126
61 -203 182 -116 108 78 147 137 130 195 -15 53 -32 62 -106 59 -91 -5 -137
17 -163 75 -21 48 -36 54 -49 21z m106 -117 c17 -7 53 -12 80 -11 82 4 90 2
101 -28 12 -34 -6 -74 -57 -127 -36 -38 -106 -75 -143 -75 -34 0 -68 27 -68
55 0 13 8 40 17 60 16 34 16 39 0 99 -23 87 -22 94 11 64 15 -13 41 -30 59
-37z"/>
<path d="M10757 2284 c-10 -35 -11 -57 -5 -77 11 -30 42 -51 64 -43 18 7 18
26 0 26 -16 0 -39 26 -42 47 -2 9 4 27 13 40 15 22 15 26 0 40 -14 14 -17 12
-30 -33z"/>
<path d="M2220 2485 c-6 -8 -9 -18 -6 -24 3 -5 8 -26 11 -48 2 -21 9 -63 15
-92 14 -73 13 -78 -10 -84 -15 -4 -20 -14 -20 -39 0 -30 -5 -36 -41 -52 -42
-19 -92 -78 -129 -152 -40 -80 -35 -339 10 -547 7 -32 5 -42 -11 -58 -27 -27
-29 -91 -2 -117 14 -15 14 -46 0 -102 -25 -97 -17 -125 23 -90 23 20 25 20 37
4 7 -10 13 -21 13 -25 0 -4 7 -9 15 -13 10 -3 26 11 47 42 18 26 31 47 29 47
-13 0 27 66 53 87 25 20 35 38 39 70 3 24 14 49 25 57 10 9 29 32 42 51 13 19
28 40 34 45 17 16 89 106 116 145 13 19 35 46 48 60 13 14 39 55 56 92 42 84
47 169 17 249 -21 53 -21 53 -1 74 23 24 25 47 9 74 -12 19 10 60 84 153 16
20 27 40 24 45 -3 5 -25 8 -49 7 -36 -2 -47 3 -68 27 -29 32 -40 35 -94 24
-35 -7 -40 -5 -62 23 -21 26 -30 30 -76 30 -29 0 -61 1 -71 1 -9 1 -27 12 -39
26 -24 28 -50 32 -68 10z m142 -65 c37 0 57 -4 53 -10 -3 -5 2 -10 11 -10 10
0 28 -10 41 -22 21 -20 28 -21 74 -12 27 6 52 7 55 2 3 -4 -2 -8 -10 -8 -9 0
-16 -4 -16 -8 0 -5 -8 -17 -18 -28 -35 -38 -63 -92 -51 -99 13 -9 16 -5 66 66
36 52 39 54 56 39 9 -9 17 -22 17 -28 0 -7 5 -12 11 -12 5 0 7 5 4 10 -3 6 4
10 16 10 21 0 21 0 3 -27 -63 -98 -88 -133 -93 -133 -3 0 -35 7 -71 16 -36 9
-76 18 -90 20 -13 3 -29 9 -35 13 -5 5 -23 12 -40 15 -51 12 -60 26 -78 127
-22 124 -22 125 9 100 20 -16 41 -21 86 -21z m-24 -238 c12 -8 22 -11 22 -8 0
4 6 4 13 -1 6 -4 14 -8 17 -9 3 0 12 -3 20 -6 34 -14 151 -38 180 -38 33 0 40
-19 13 -36 -25 -15 -144 -17 -194 -4 -48 13 -157 83 -166 107 -14 36 33 33 95
-5z m-78 -57 c33 -39 209 -98 276 -93 33 3 40 -1 57 -30 11 -19 22 -60 24 -96
8 -90 -22 -163 -112 -274 -39 -48 -81 -102 -94 -120 -13 -19 -33 -44 -45 -56
-44 -46 -96 -109 -96 -116 0 -4 -11 -12 -25 -18 -65 -30 -127 -1 -149 68 -30
92 -51 264 -51 405 0 135 1 142 30 199 31 61 101 132 138 139 12 2 25 5 28 6
4 0 12 -6 19 -14z m-150 -817 c20 -23 34 -29 66 -30 23 0 51 3 62 7 29 8 28
-6 -2 -34 -27 -25 -69 -32 -106 -17 -39 16 -80 64 -80 95 0 35 12 48 25 25 5
-9 21 -30 35 -46z m42 -112 l37 -7 -27 -50 -26 -51 -21 25 c-16 21 -23 24 -39
15 -18 -10 -18 -8 -12 23 7 31 13 60 15 67 1 1 9 -1 19 -6 9 -5 34 -12 54 -16z"/>
<path d="M2336 2402 c-4 -7 2 -45 20 -129 2 -13 11 -23 19 -23 8 0 15 2 15 5
0 4 -16 85 -26 133 -4 22 -18 29 -28 14z"/>
<path d="M2146 1908 c-8 -75 -7 -171 4 -258 6 -41 13 -97 16 -125 7 -57 8 -58
26 -53 12 2 12 14 2 73 -19 99 -28 321 -16 373 9 37 8 42 -8 42 -13 0 -19 -12
-24 -52z"/>
<path d="M11171 2461 c-12 -40 -3 -110 20 -152 7 -14 4 -30 -11 -63 -26 -59
-26 -97 3 -124 33 -31 69 -36 124 -18 54 18 138 82 167 128 24 38 26 112 3
135 -12 12 -39 17 -107 18 -103 3 -121 13 -147 78 -19 48 -37 47 -52 -2z m127
-118 c17 -13 39 -23 49 -23 27 0 43 -20 43 -53 0 -25 2 -28 15 -17 20 16 19
54 -1 75 -9 9 -14 19 -10 22 13 13 46 9 62 -8 23 -26 9 -79 -34 -126 -32 -35
-92 -76 -114 -78 -3 0 -10 -3 -14 -7 -22 -22 -90 4 -98 37 -3 13 1 39 9 59 18
43 20 107 3 124 -7 7 -9 12 -5 12 4 0 3 9 -3 19 -5 11 -7 26 -4 34 4 11 13 7
38 -17 19 -17 47 -41 64 -53z"/>
<path d="M5697 2060 c-19 -16 -40 -43 -46 -60 -6 -16 -16 -44 -22 -61 -8 -19
-26 -37 -50 -49 -72 -37 -89 -95 -44 -149 33 -39 79 -53 169 -53 120 1 192 47
184 118 -2 21 -19 41 -63 76 -73 58 -89 91 -75 151 5 23 10 45 10 50 0 16 -31
5 -63 -23z m37 -135 c10 -17 41 -46 69 -66 62 -41 70 -68 32 -103 -38 -35
-120 -51 -189 -36 -97 20 -139 93 -75 128 53 29 87 61 94 89 3 16 14 44 23 63
l17 35 5 -40 c3 -22 14 -54 24 -70z"/>
<path d="M5639 1867 c-19 -12 -38 -34 -43 -48 -13 -37 0 -79 24 -79 21 0 27
15 10 25 -23 15 -10 56 25 76 19 12 35 27 35 35 0 20 -12 18 -51 -9z"/>
<path d="M13 1983 c-8 -3 -13 -25 -13 -60 0 -72 26 -118 93 -163 31 -22 53
-45 55 -58 4 -28 -39 -69 -81 -77 -54 -11 -67 -16 -67 -26 0 -16 69 -10 114
11 49 24 69 53 64 96 -2 21 -19 41 -63 76 -73 58 -89 91 -75 151 14 61 11 66
-27 50z"/>
<path d="M7902 1604 c-9 -17 5 -84 18 -84 4 0 7 -6 7 -14 0 -7 10 -39 23 -70
21 -54 22 -58 5 -76 -12 -13 -15 -27 -10 -49 6 -27 2 -32 -30 -53 -26 -17 -45
-43 -71 -96 -31 -64 -35 -83 -35 -149 0 -88 11 -140 58 -278 18 -55 36 -110
38 -122 3 -12 14 -42 25 -67 10 -25 15 -46 10 -46 -5 0 -13 -15 -18 -32 -10
-35 3 -73 32 -97 12 -10 16 -34 16 -102 0 -48 4 -91 10 -94 5 -3 17 3 27 15
22 25 35 25 51 0 28 -45 51 -17 76 94 10 41 24 74 40 89 20 20 25 35 24 72 0
26 3 50 8 54 5 3 29 47 53 96 25 50 52 102 62 116 10 14 25 45 35 70 9 24 23
51 31 60 22 26 53 139 54 194 1 57 -19 118 -55 171 -22 33 -24 39 -10 58 19
28 18 63 -3 75 -16 9 -16 13 6 68 13 32 35 77 48 99 20 35 21 43 9 53 -10 8
-16 9 -21 1 -11 -19 -79 -12 -95 10 -18 24 -48 25 -94 3 -34 -16 -35 -15 -65
10 -17 14 -39 24 -49 23 -120 -23 -128 -23 -153 0 -21 19 -46 18 -57 -2z m106
-46 c15 0 22 -5 18 -13 -2 -7 -1 -16 4 -21 4 -5 15 -33 25 -61 17 -55 28 -69
45 -58 8 5 7 11 -1 21 -6 8 -8 14 -4 14 4 0 1 7 -6 17 -8 9 -13 18 -11 20 1 2
-5 19 -13 39 -8 20 -12 40 -9 45 7 12 41 11 49 -1 4 -6 11 -8 16 -5 5 4 22 -2
38 -11 27 -16 32 -16 70 -1 43 18 75 23 55 9 -15 -10 -74 -135 -68 -144 12
-19 27 -3 57 63 l32 71 28 -28 c16 -15 27 -22 25 -14 -2 8 5 16 15 18 23 5 22
-1 -17 -93 l-33 -80 -69 0 c-85 0 -232 19 -244 31 -10 10 -70 169 -70 186 0 6
9 7 23 3 12 -4 32 -7 45 -7z m82 -235 c14 -3 79 -7 144 -9 66 -2 124 -8 128
-12 5 -5 -2 -16 -16 -26 -15 -9 -26 -14 -26 -10 0 4 -6 2 -13 -4 -12 -10 -113
-29 -130 -24 -4 1 -20 3 -35 4 -41 3 -154 51 -166 71 -16 25 8 37 53 25 20 -5
47 -12 61 -15z m-35 -88 c86 -23 199 -30 236 -14 29 11 33 10 59 -18 44 -47
72 -148 57 -208 -3 -11 -10 -38 -15 -60 -5 -22 -28 -74 -51 -115 -23 -41 -50
-95 -61 -120 -11 -25 -24 -52 -30 -60 -5 -8 -30 -51 -55 -96 -57 -102 -97
-124 -164 -89 -41 21 -62 62 -124 246 -77 230 -87 328 -43 434 37 88 102 143
141 120 11 -6 34 -15 50 -20z m-60 -795 c23 -24 37 -30 71 -30 24 0 55 5 69
12 34 15 41 5 18 -26 -35 -50 -111 -53 -170 -8 -24 18 -33 32 -33 53 0 37 9
36 45 -1z m112 -124 c9 -8 -22 -96 -34 -96 -7 0 -13 4 -13 9 0 15 -32 22 -46
10 -12 -9 -14 -3 -14 39 l0 51 52 -5 c28 -2 53 -6 55 -8z"/>
<path d="M7942 1067 c-12 -14 -7 -107 9 -172 6 -22 29 -97 52 -167 31 -98 45
-128 58 -128 15 0 11 18 -27 128 -45 128 -67 231 -68 310 0 44 -6 51 -24 29z"/>
<path d="M1667 1300 c-19 -16 -40 -43 -46 -60 -6 -16 -16 -44 -22 -61 -8 -19
-26 -37 -50 -49 -72 -37 -89 -95 -44 -149 33 -39 79 -53 169 -53 120 1 192 47
184 118 -2 21 -19 41 -63 76 -73 58 -89 91 -75 151 5 23 10 45 10 50 0 16 -31
5 -63 -23z m37 -135 c10 -17 41 -46 69 -66 62 -41 70 -68 32 -103 -38 -35
-120 -51 -189 -36 -97 20 -139 93 -75 128 53 29 87 61 94 89 3 16 14 44 23 63
l17 35 5 -40 c3 -22 14 -54 24 -70z"/>
<path d="M1609 1107 c-19 -12 -38 -34 -43 -48 -13 -37 0 -79 24 -79 21 0 27
15 10 25 -23 15 -10 56 25 76 19 12 35 27 35 35 0 20 -12 18 -51 -9z"/>
<path d="M2470 1283 c0 -5 5 -27 10 -50 14 -60 -2 -93 -75 -151 -44 -35 -61
-55 -63 -76 -8 -71 64 -117 184 -118 90 0 136 14 169 53 45 54 28 112 -44 149
-24 12 -42 30 -50 49 -6 17 -16 45 -22 61 -18 48 -110 117 -109 83z m91 -131
c13 -43 40 -73 98 -104 64 -35 22 -108 -75 -128 -69 -15 -151 1 -189 36 -38
35 -30 62 32 104 59 40 93 92 93 141 0 31 1 32 14 14 8 -11 20 -40 27 -63z"/>
<path d="M2479 1067 c-19 -12 -38 -34 -43 -48 -13 -37 0 -79 24 -79 21 0 27
15 10 25 -23 15 -10 56 25 76 19 12 35 27 35 35 0 20 -12 18 -51 -9z"/>
<path d="M2037 988 c-19 -19 -42 -56 -53 -87 -14 -40 -27 -59 -49 -70 -107
-57 -112 -141 -12 -192 57 -30 181 -29 243 2 55 26 82 75 63 112 -12 22 -47
57 -58 57 -3 0 -20 13 -38 29 -43 38 -56 73 -43 120 5 20 10 42 10 49 0 22
-28 13 -63 -20z m16 -43 c-3 -9 3 -37 13 -63 10 -26 17 -54 16 -63 -2 -8 7
-24 18 -34 24 -22 26 -52 3 -77 -15 -17 -15 -18 9 -18 32 0 54 49 37 82 -9 16
-8 19 3 13 79 -46 60 -105 -44 -131 -56 -15 -157 -4 -189 19 -51 39 -44 90 17
117 41 19 74 60 74 92 0 14 37 78 45 78 2 0 2 -7 -2 -15z"/>
<path d="M11557 868 c-19 -19 -42 -56 -53 -87 -14 -40 -27 -59 -49 -70 -107
-57 -112 -141 -12 -192 57 -30 181 -29 243 2 55 26 82 75 63 112 -12 22 -47
57 -58 57 -3 0 -20 13 -38 29 -43 38 -56 73 -43 120 5 20 10 42 10 49 0 22
-28 13 -63 -20z m16 -43 c-3 -9 3 -37 13 -63 10 -26 17 -54 16 -63 -2 -8 7
-24 18 -34 24 -22 26 -52 3 -77 -15 -17 -15 -18 9 -18 32 0 54 49 37 82 -9 16
-8 19 3 13 79 -46 60 -105 -44 -131 -56 -15 -157 -4 -189 19 -51 39 -44 90 17
117 41 19 74 60 74 92 0 14 37 78 45 78 2 0 2 -7 -2 -15z"/>
<path d="M8370 475 c0 -3 5 -14 10 -25 6 -11 14 -29 20 -39 21 -44 2 -93 -64
-164 -91 -97 -1 -185 159 -156 119 21 175 67 175 143 0 30 -5 40 -32 56 -18
11 -41 20 -51 20 -21 0 -77 52 -77 72 0 16 -54 70 -87 87 -22 11 -53 15 -53 6z
m117 -117 c23 -44 34 -52 129 -88 32 -12 35 -53 7 -88 -66 -85 -293 -92 -293
-9 0 12 18 42 40 67 49 55 70 97 70 140 0 43 17 35 47 -22z"/>
<path d="M8420 255 c-24 -25 -33 -43 -32 -65 1 -35 17 -60 38 -60 16 0 19 16
4 25 -20 12 -11 63 15 83 24 19 34 52 17 52 -4 0 -23 -16 -42 -35z"/>
<path d="M7586 340 c-25 -30 -53 -107 -42 -117 9 -10 -36 -82 -55 -88 -9 -3
-24 -21 -33 -39 -22 -46 -6 -96 31 -96 l24 0 -20 26 c-12 15 -21 32 -21 38 0
7 23 33 50 59 36 34 50 55 50 75 0 15 5 45 11 67 l12 40 13 -38 c17 -50 34
-65 113 -107 52 -27 67 -40 69 -60 3 -28 -23 -58 -73 -84 l-30 -16 38 0 c52 0
97 45 97 98 0 41 -6 46 -94 92 -66 33 -86 63 -87 128 -2 61 -15 67 -53 22z"/>
<path d="M4257 240 c-19 -16 -40 -43 -46 -60 -6 -16 -16 -44 -22 -61 -8 -19
-26 -37 -50 -49 -39 -20 -76 -63 -60 -68 9 -3 64 30 112 67 14 11 31 39 38 63
7 23 19 52 27 63 13 18 14 17 14 -14 0 -50 34 -102 96 -143 62 -43 100 -52 68
-17 -10 11 -40 36 -66 55 -56 41 -72 80 -58 139 5 22 10 43 10 48 0 16 -31 5
-63 -23z"/>
<path d="M7577 148 c-52 -38 -68 -108 -31 -139 22 -18 34 -1 18 29 -19 37 -18
39 17 71 17 16 29 36 27 44 -2 13 -7 13 -31 -5z"/>
<path d="M8013 111 c-24 -31 -43 -73 -43 -97 0 -27 28 -14 35 16 8 35 25 50
25 21 0 -33 11 -51 31 -51 17 0 18 3 9 21 -6 11 -11 35 -10 52 4 76 -9 87 -47
38z"/>
<path d="M4200 48 c-34 -23 -50 -48 -31 -48 20 0 81 42 81 56 0 20 -12 18 -50
-8z"/>
</g>
</svg>
